<?xml version="1.0" encoding="utf-8"?>
<!-- Generator: Adobe Illustrator 24.1.2, SVG Export Plug-In . SVG Version: 6.00 Build 0)  -->
<svg version="1.1" xmlns="http://www.w3.org/2000/svg" xmlns:xlink="http://www.w3.org/1999/xlink" x="0px" y="0px"
	 viewBox="0 0 377 386" style="enable-background:new 0 0 377 386;" xml:space="preserve">
<style type="text/css">
	.st0{opacity:0.8;fill:#061045;}
	.st1{fill:#808080;}
	.st2{fill:#2E2440;}
	.st3{fill:#A7BE5D;stroke:#FFFFFF;stroke-width:5;stroke-miterlimit:10;}
	.st4{fill:#FFFFFF;stroke:#2E2440;stroke-width:5;stroke-miterlimit:10;}
	.st5{fill:#2E2440;stroke:#FFFFFF;stroke-width:5;stroke-miterlimit:10;}
	.st6{fill:#FFFFFF;}
	.st7{fill:#FFFFFF;stroke:#A7BE5D;stroke-width:5;stroke-miterlimit:10;}
	.st8{fill:#FFFFFF;stroke:#FFFFFF;stroke-width:5;stroke-miterlimit:10;}
	.st9{opacity:0.5;}
	.st10{fill:#455A8E;stroke:#FFFFFF;stroke-width:5;stroke-miterlimit:10;}
	.st11{fill:#C15C49;stroke:#FFFFFF;stroke-width:5;stroke-miterlimit:10;}
	.st12{fill-rule:evenodd;clip-rule:evenodd;fill:#FEFEFE;}
	.st13{fill-rule:evenodd;clip-rule:evenodd;fill:none;stroke:#FFFFFF;stroke-width:3;stroke-miterlimit:10;}
	.st14{fill:#A7BE5D;}
	.st15{fill:none;stroke:#A7BE5D;stroke-width:5;stroke-miterlimit:10;}
	.st16{fill:#C15C49;}
	.st17{fill:#394169;stroke:#FFFFFF;stroke-width:5;stroke-miterlimit:10;}
	.st18{font-family:'Catseye-Bold';}
	.st19{font-size:59.1697px;}
</style>
<g id="Layer_1">
</g>
<g id="Layer_2">
</g>
<g id="Layer_3">
	<path class="st6" d="M196.9,84.82c-53.85,0-97.5,31.12-97.5,69.5c0,17.85,9.45,34.14,24.97,46.44c0.01,0.02,0.02,0.04,0.03,0.06
		c7.46,14.63-13,39-13,39c29.1-3.88,42.21-21.88,42.96-22.95c12.85,4.45,27.29,6.95,42.54,6.95c53.85,0,97.5-31.12,97.5-69.5
		S250.75,84.82,196.9,84.82z M167.9,196.32c-4.97,0-9-4.03-9-9c0-4.97,4.03-9,9-9s9,4.03,9,9
		C176.9,192.29,172.87,196.32,167.9,196.32z M194.9,196.32c-4.97,0-9-4.03-9-9c0-4.97,4.03-9,9-9s9,4.03,9,9
		C203.9,192.29,199.87,196.32,194.9,196.32z M221.9,196.32c-4.97,0-9-4.03-9-9c0-4.97,4.03-9,9-9s9,4.03,9,9
		C230.9,192.29,226.87,196.32,221.9,196.32z"/>
	<text transform="matrix(1 0 0 1 65.2812 301.957)" class="st6 st18 st19">Messages</text>
</g>
</svg>
