<?xml version="1.0" encoding="utf-8"?>
<!-- Generator: Adobe Illustrator 24.1.2, SVG Export Plug-In . SVG Version: 6.00 Build 0)  -->
<svg version="1.1" xmlns="http://www.w3.org/2000/svg" xmlns:xlink="http://www.w3.org/1999/xlink" x="0px" y="0px"
	 viewBox="0 0 377 386" style="enable-background:new 0 0 377 386;" xml:space="preserve">
<style type="text/css">
	.st0{opacity:0.8;fill:#061045;}
	.st1{fill:#808080;}
	.st2{fill:#2E2440;}
	.st3{fill:#A7BE5D;stroke:#FFFFFF;stroke-width:5;stroke-miterlimit:10;}
	.st4{fill:#FFFFFF;stroke:#2E2440;stroke-width:5;stroke-miterlimit:10;}
	.st5{fill:#2E2440;stroke:#FFFFFF;stroke-width:5;stroke-miterlimit:10;}
	.st6{fill:#FFFFFF;}
	.st7{fill:#FFFFFF;stroke:#A7BE5D;stroke-width:5;stroke-miterlimit:10;}
	.st8{fill:#FFFFFF;stroke:#FFFFFF;stroke-width:5;stroke-miterlimit:10;}
	.st9{opacity:0.5;}
	.st10{fill:#455A8E;stroke:#FFFFFF;stroke-width:5;stroke-miterlimit:10;}
	.st11{fill:#C15C49;stroke:#FFFFFF;stroke-width:5;stroke-miterlimit:10;}
	.st12{fill-rule:evenodd;clip-rule:evenodd;fill:#FEFEFE;}
	.st13{fill-rule:evenodd;clip-rule:evenodd;fill:none;stroke:#FFFFFF;stroke-width:3;stroke-miterlimit:10;}
	.st14{fill:#A7BE5D;}
	.st15{fill:none;stroke:#A7BE5D;stroke-width:5;stroke-miterlimit:10;}
	.st16{fill:#C15C49;}
	.st17{fill:#394169;stroke:#FFFFFF;stroke-width:5;stroke-miterlimit:10;}
</style>
<g id="Layer_1">
</g>
<g id="Layer_2">
</g>
<g id="Layer_3">
	<path class="st6" d="M298.38,177.38h-16.95c-2.39-14.24-7.99-27.38-16.03-38.68l11.99-11.99c6.1-6.1,6.1-16,0-22.1
		c-6.1-6.1-16-6.1-22.1,0L243.3,116.6c-11.29-8.04-24.44-13.64-38.68-16.03V83.62c0-8.63-7-15.62-15.62-15.62s-15.62,7-15.62,15.62
		v16.95c-14.24,2.39-27.38,7.99-38.68,16.03l-11.99-11.99c-6.1-6.1-16-6.1-22.1,0c-6.1,6.1-6.1,16,0,22.1l11.99,11.99
		c-8.04,11.29-13.64,24.44-16.03,38.68H79.62C71,177.38,64,184.37,64,193s7,15.62,15.62,15.62h16.95
		c2.39,14.24,7.99,27.38,16.03,38.68l-11.99,11.99c-6.1,6.1-6.1,16,0,22.1c6.1,6.1,16,6.1,22.1,0l11.99-11.99
		c11.29,8.04,24.44,13.64,38.68,16.03v16.95c0,8.63,7,15.62,15.62,15.62s15.62-7,15.62-15.62v-16.95
		c14.24-2.39,27.38-7.99,38.68-16.03l11.99,11.99c6.1,6.1,16,6.1,22.1,0c6.1-6.1,6.1-16,0-22.1L265.4,247.3
		c8.04-11.29,13.64-24.44,16.03-38.68h16.95c8.63,0,15.62-7,15.62-15.62S307,177.38,298.38,177.38z M189,251.04
		c-32.05,0-58.04-25.98-58.04-58.04s25.98-58.04,58.04-58.04s58.04,25.98,58.04,58.04S221.05,251.04,189,251.04z"/>
</g>
</svg>
