<?xml version="1.0" encoding="utf-8"?>
<!-- Generator: Adobe Illustrator 24.1.2, SVG Export Plug-In . SVG Version: 6.00 Build 0)  -->
<svg version="1.1" xmlns="http://www.w3.org/2000/svg" xmlns:xlink="http://www.w3.org/1999/xlink" x="0px" y="0px"
	 viewBox="0 0 377 386" style="enable-background:new 0 0 377 386;" xml:space="preserve">
<style type="text/css">
	.st0{opacity:0.8;fill:#061045;}
	.st1{fill:#808080;}
	.st2{fill:#2E2440;}
	.st3{fill:#A7BE5D;stroke:#FFFFFF;stroke-width:5;stroke-miterlimit:10;}
	.st4{fill:#FFFFFF;stroke:#2E2440;stroke-width:5;stroke-miterlimit:10;}
	.st5{fill:#2E2440;stroke:#FFFFFF;stroke-width:5;stroke-miterlimit:10;}
	.st6{fill:#FFFFFF;}
	.st7{fill:#FFFFFF;stroke:#A7BE5D;stroke-width:5;stroke-miterlimit:10;}
	.st8{fill:#FFFFFF;stroke:#FFFFFF;stroke-width:5;stroke-miterlimit:10;}
	.st9{opacity:0.5;}
	.st10{fill:#455A8E;stroke:#FFFFFF;stroke-width:5;stroke-miterlimit:10;}
	.st11{fill:#C15C49;stroke:#FFFFFF;stroke-width:5;stroke-miterlimit:10;}
	.st12{fill-rule:evenodd;clip-rule:evenodd;fill:#FEFEFE;}
	.st13{fill-rule:evenodd;clip-rule:evenodd;fill:none;stroke:#FFFFFF;stroke-width:3;stroke-miterlimit:10;}
	.st14{fill:#A7BE5D;}
	.st15{fill:none;stroke:#A7BE5D;stroke-width:5;stroke-miterlimit:10;}
	.st16{fill:#C15C49;}
	.st17{fill:#394169;stroke:#FFFFFF;stroke-width:5;stroke-miterlimit:10;}
	.st18{font-family:'Catseye-Medium';}
	.st19{font-size:59.1697px;}
</style>
<g id="Layer_1">
</g>
<g id="Layer_2">
</g>
<g id="Layer_3">
	<text transform="matrix(1 0 0 1 117.4424 302.9023)" class="st6 st18 st19">Match</text>
	<g>
		<path class="st6" d="M196.33,209.1c0,0,32.38,3.36,33.87-29.78c0,0-2.83-30.54-34.41-26.5l-0.31-30.06l33.9-0.38
			c0,0-20.06-31.01,16.88-38.87c0,0,34.08,1.87,18.61,38.59l38.02,0.21l0.32,114.44l-106.76,0.17L196.33,209.1z"/>
		<path class="st6" d="M190.37,237.16l0.94-34.46c0,0,31.8,7.48,32.71-21.55s-33.51-20.69-33.51-20.69l-0.45-37.74l-39.33,0.35
			c0,0,19.96,32.6-20.44,39.6c0,0-29.93-6.72-16.37-38.76l-37.36-0.48l-0.89,113.4l39.89,0.96c0,0-16.77-32.4,18.47-38.76
			c0,0,34.91,3.84,18.72,37L190.37,237.16z"/>
	</g>
</g>
</svg>
